{"accessors":[{"bufferView":0,"byteOffset":0,"componentType":5126,"count":114,"max":[11.0299997329712,1.5,7.52400016784668],"min":[-11.0299997329712,-1.5,-7.52400016784668],"normalized":false,"type":"VEC3"},{"bufferView":1,"byteOffset":0,"componentType":5126,"count":114,"max":[0.0,0.0,0.0000763009302318096,1.0],"min":[-1.0,-1.0,-1.0,-1.0],"normalized":false,"type":"VEC4"},{"bufferView":2,"byteOffset":0,"componentType":5126,"count":114,"max":[1.0,1.0,1.0],"min":[-1.0,-1.0,-1.0],"normalized":false,"type":"VEC3"},{"bufferView":3,"byteOffset":0,"componentType":5126,"count":114,"max":[1.0,1.0],"min":[0.0,0.0],"normalized":false,"type":"VEC2"},{"bufferView":4,"byteOffset":0,"componentType":5123,"count":114,"max":[113.0],"min":[0.0],"normalized":false,"type":"SCALAR"},{"bufferView":5,"byteOffset":0,"componentType":5126,"count":36,"max":[6.53907632827759,1.5,5.1966667175293],"min":[1.3152871131897,-1.5,-5.1966667175293],"normalized":false,"type":"VEC3"},{"bufferView":6,"byteOffset":0,"componentType":5126,"count":36,"max":[0.0,0.0,0.0000763009302318096,1.0],"min":[-1.0,-1.0,-1.0,-1.0],"normalized":false,"type":"VEC4"},{"bufferView":7,"byteOffset":0,"componentType":5126,"count":36,"max":[1.0,1.0,1.0],"min":[-1.0,-1.0,-1.0],"normalized":false,"type":"VEC3"},{"bufferView":8,"byteOffset":0,"componentType":5126,"count":36,"max":[1.0,1.0],"min":[0.0,0.0],"normalized":false,"type":"VEC2"},{"bufferView":9,"byteOffset":0,"componentType":5123,"count":36,"max":[35.0],"min":[0.0],"normalized":false,"type":"SCALAR"},{"bufferView":10,"byteOffset":0,"componentType":5126,"count":96,"max":[13.3380002975464,1.5,9.60900020599365],"min":[-13.3380002975464,-1.5,-9.60900020599365],"normalized":false,"type":"VEC3"},{"bufferView":11,"byteOffset":0,"componentType":5126,"count":96,"max":[0.0,0.0,0.0000763009302318096,1.0],"min":[-1.0,-1.0,-1.0,-1.0],"normalized":false,"type":"VEC4"},{"bufferView":12,"byteOffset":0,"componentType":5126,"count":96,"max":[1.0,1.0,1.0],"min":[-1.0,-1.0,-1.0],"normalized":false,"type":"VEC3"},{"bufferView":13,"byteOffset":0,"componentType":5126,"count":96,"max":[1.0,1.0],"min":[0.0,0.0],"normalized":false,"type":"VEC2"},{"bufferView":14,"byteOffset":0,"componentType":5123,"count":96,"max":[95.0],"min":[0.0],"normalized":false,"type":"SCALAR"},{"bufferView":15,"byteOffset":0,"componentType":5126,"count":84,"max":[4.82250022888184,1.5,15.3874998092651],"min":[-4.82250022888184,-1.5,-15.3874998092651],"normalized":false,"type":"VEC3"},{"bufferView":16,"byteOffset":0,"componentType":5126,"count":84,"max":[0.0,0.0,0.0000763009302318096,1.0],"min":[-1.0,-1.0,-1.0,-1.0],"normalized":false,"type":"VEC4"},{"bufferView":17,"byteOffset":0,"componentType":5126,"count":84,"max":[1.0,1.0,1.0],"min":[-1.0,-1.0,-1.0],"normalized":false,"type":"VEC3"},{"bufferView":18,"byteOffset":0,"componentType":5126,"count":84,"max":[1.0,1.0],"min":[0.0,0.0],"normalized":false,"type":"VEC2"},{"bufferView":19,"byteOffset":0,"componentType":5123,"count":84,"max":[83.0],"min":[0.0],"normalized":false,"type":"SCALAR"},{"bufferView":20,"byteOffset":0,"componentType":5126,"count":522,"max":[27.9074993133545,4.5,5.71868753433228],"min":[-35.8810005187988,-1.5,-32.1319999694824],"normalized":false,"type":"VEC3"},{"bufferView":21,"byteOffset":0,"componentType":5126,"count":522,"max":[0.0,0.0,0.0000152592547237873,1.0],"min":[-1.0,-1.0,-1.0,1.0],"normalized":false,"type":"VEC4"},{"bufferView":22,"byteOffset":0,"componentType":5126,"count":522,"max":[1.0,1.0,1.0],"min":[-1.0,-1.0,-1.0],"normalized":false,"type":"VEC3"},{"bufferView":23,"byteOffset":0,"componentType":5126,"count":522,"max":[1.0,1.0],"min":[0.0,0.0],"normalized":false,"type":"VEC2"},{"bufferView":24,"byteOffset":0,"componentType":5123,"count":522,"max":[521.0],"min":[0.0],"normalized":false,"type":"SCALAR"}],"asset":{"generator":"Godot Engine v4.4.1.stable.official@49a5bc7b616bd04689a2c89e89bda41f50241464","version":"2.0"},"bufferViews":[{"buffer":0,"byteLength":1368,"byteOffset":0,"byteStride":12,"target":34962},{"buffer":0,"byteLength":1824,"byteOffset":1368,"byteStride":16,"target":34962},{"buffer":0,"byteLength":1368,"byteOffset":3192,"byteStride":12,"target":34962},{"buffer":0,"byteLength":912,"byteOffset":4560,"byteStride":8,"target":34962},{"buffer":0,"byteLength":228,"byteOffset":5472,"target":34963},{"buffer":0,"byteLength":432,"byteOffset":5700,"byteStride":12,"target":34962},{"buffer":0,"byteLength":576,"byteOffset":6132,"byteStride":16,"target":34962},{"buffer":0,"byteLength":432,"byteOffset":6708,"byteStride":12,"target":34962},{"buffer":0,"byteLength":288,"byteOffset":7140,"byteStride":8,"target":34962},{"buffer":0,"byteLength":72,"byteOffset":7428,"target":34963},{"buffer":0,"byteLength":1152,"byteOffset":7500,"byteStride":12,"target":34962},{"buffer":0,"byteLength":1536,"byteOffset":8652,"byteStride":16,"target":34962},{"buffer":0,"byteLength":1152,"byteOffset":10188,"byteStride":12,"target":34962},{"buffer":0,"byteLength":768,"byteOffset":11340,"byteStride":8,"target":34962},{"buffer":0,"byteLength":192,"byteOffset":12108,"target":34963},{"buffer":0,"byteLength":1008,"byteOffset":12300,"byteStride":12,"target":34962},{"buffer":0,"byteLength":1344,"byteOffset":13308,"byteStride":16,"target":34962},{"buffer":0,"byteLength":1008,"byteOffset":14652,"byteStride":12,"target":34962},{"buffer":0,"byteLength":672,"byteOffset":15660,"byteStride":8,"target":34962},{"buffer":0,"byteLength":168,"byteOffset":16332,"target":34963},{"buffer":0,"byteLength":6264,"byteOffset":16500,"byteStride":12,"target":34962},{"buffer":0,"byteLength":8352,"byteOffset":22764,"byteStride":16,"target":34962},{"buffer":0,"byteLength":6264,"byteOffset":31116,"byteStride":12,"target":34962},{"buffer":0,"byteLength":4176,"byteOffset":37380,"byteStride":8,"target":34962},{"buffer":0,"byteLength":1044,"byteOffset":41556,"target":34963}],"buffers":[{"byteLength":42600,"uri":"main_level0.bin"}],"extensions":{"KHR_lights_punctual":{"lights":[{"type":"directional"}]}},"extensionsUsed":["GODOT_single_root","KHR_lights_punctual"],"images":[{"uri":"textures%2F_albedo000.png"}],"materials":[{"extensions":{},"pbrMetallicRoughness":{"baseColorFactor":[1.0,1.0,1.0,1.0],"baseColorTexture":{"index":0},"metallicFactor":0.0,"roughnessFactor":1.0}}],"meshes":[{"extras":{"targetNames":[]},"primitives":[{"attributes":{"NORMAL":2,"POSITION":0,"TANGENT":1,"TEXCOORD_0":3},"indices":4,"material":0,"mode":4}]},{"extras":{"targetNames":[]},"primitives":[{"attributes":{"NORMAL":7,"POSITION":5,"TANGENT":6,"TEXCOORD_0":8},"indices":9,"material":0,"mode":4}]},{"extras":{"targetNames":[]},"primitives":[{"attributes":{"NORMAL":12,"POSITION":10,"TANGENT":11,"TEXCOORD_0":13},"indices":14,"material":0,"mode":4}]},{"extras":{"targetNames":[]},"primitives":[{"attributes":{"NORMAL":17,"POSITION":15,"TANGENT":16,"TEXCOORD_0":18},"indices":19,"material":0,"mode":4}]},{"extras":{"targetNames":[]},"primitives":[{"attributes":{"NORMAL":22,"POSITION":20,"TANGENT":21,"TEXCOORD_0":23},"indices":24,"material":0,"mode":4}]}],"nodes":[{"children":[1,2,3,6,8,10,12,23],"name":"MainLevel"},{"name":"WorldEnvironment"},{"extensions":{"KHR_lights_punctual":{"light":0}},"name":"DirectionalLight3D","rotation":[-0.129410669207573,0.836515367031097,0.482963532209396,0.22414530813694]},{"children":[4,5],"mesh":0,"name":"Overhang2","translation":[-20.1439990997314,1.5,11.1429996490479]},{"name":"Overhang22","translation":[4.37400054931641,0.0,4.19507122039795]},{"name":"Corridor3","translation":[-5.1383228302002,-0.25,-6.86887359619141]},{"children":[7],"mesh":1,"name":"Overhang24","translation":[-25.0750007629395,1.5,-4.80100011825562]},{"name":"Overhang3","translation":[-5.22378921508789,0.0,0.0]},{"children":[9],"mesh":2,"name":"Overhang33","translation":[1.34099996089935,1.5,-9.1560001373291]},{"name":"Overhang4","translation":[-0.0304527282714844,0.0,-0.0924406051635742]},{"children":[11],"mesh":3,"name":"Overhang43","translation":[27.3519992828369,1.5,-0.633000016212463]},{"name":"Overhang5","translation":[0.0109062194824219,0.0772428512573242,6.91675090789795]},{"children":[13],"mesh":4,"name":"Room2","translation":[4.26700019836426,1.5,13.3668117523193]},{"children":[14,15,16,17,18,19,20,21,22],"name":"CSGCombiner3D"},{"name":"Room22","translation":[-24.4108295440674,1.5,-2.22398948669434]},{"name":"Corridor","translation":[-9.67914009094238,-0.25,0.126930236816406]},{"name":"Corridor2","translation":[-29.5493221282959,-0.25,-9.23136901855469]},{"name":"Corridor4","translation":[-19.5011024475098,2.75,-17.6653671264648]},{"name":"Corridor5","translation":[-11.4515113830566,2.75,-9.33672046661377]},{"name":"Corridor6","translation":[14.418999671936,2.75,-23.5960006713867]},{"name":"Room3","translation":[-29.3419990539551,1.5,-18.1679992675781]},{"name":"Room4","translation":[-2.92600011825562,1.5,-22.5230007171631]},{"name":"Room5","translation":[23.0849990844727,1.5,-14.0]},{"name":"Sprite3D","scale":[2.40000009536743,2.40000009536743,2.40000009536743],"translation":[0.0,0.100000001490116,0.0]}],"samplers":[{"magFilter":9729,"minFilter":9987,"wrapS":10497,"wrapT":10497}],"scene":0,"scenes":[{"nodes":[0]}],"textures":[{"sampler":0,"source":0}]}